<svg xmlns="http://www.w3.org/2000/svg" viewBox="0 0 99.04 64.52"><defs><style>.cls-2{fill:none;stroke:#fff;stroke-miterlimit:10;stroke-width:.75px;stroke-linecap:round}</style></defs><g id="Warstwa_2" data-name="Warstwa 2"><g id="Warstwa_1-2" data-name="Warstwa 1"><circle cx="68.58" cy="31.91" r="18.48" fill="none" stroke="#fff" stroke-miterlimit="10" stroke-width=".75"/><path class="cls-2" d="M81.27 11.52l3.98-6.36M91.49 24.84l7.18-2.2M90.46 41.59l6.86 3.05M78.7 53.56l3.17 6.8M52.86 13.76l-4.93-5.67M68.58 7.88V.38"/><path d="M66.18 35.59a14.14 14.14 0 0 0-2.13.18A14.08 14.08 0 0 0 44.3 23.4a14.06 14.06 0 0 0-24.48 11.35A14.11 14.11 0 1 0 18.61 61a14.05 14.05 0 0 0 19-.32 14.07 14.07 0 0 0 18.35-1.31 14.1 14.1 0 1 0 10.22-23.78z" fill="#fff"/></g></g></svg>