<svg xmlns="http://www.w3.org/2000/svg" viewBox="0 0 101.17 53.38"><g data-name="Warstwa 2"><g data-name="Warstwa 1"><path d="M86 36.17A23.19 23.19 0 0 1 89.54.49a23.18 23.18 0 1 0 10.55 42.35A23.08 23.08 0 0 1 86 36.17z" fill="none" stroke="#fff" stroke-miterlimit="10" stroke-width=".75"/><path d="M66.18 24.45a14.14 14.14 0 0 0-2.13.18A14.08 14.08 0 0 0 44.3 12.26a14.06 14.06 0 0 0-24.48 11.35 14.11 14.11 0 1 0-1.21 26.24 14.05 14.05 0 0 0 19-.32 14.07 14.07 0 0 0 18.35-1.31 14.1 14.1 0 1 0 10.22-23.77z" fill="#fff"/></g></g></svg>