<svg xmlns="http://www.w3.org/2000/svg" viewBox="0 0 101.44 57.47"><g data-name="Warstwa 2"><g data-name="Warstwa 1"><path d="M87.33 16.94a14.14 14.14 0 0 0-2.13.18A14.08 14.08 0 0 0 65.45 4.75 14.06 14.06 0 0 0 41 16.1a14.11 14.11 0 1 0-1.21 26.24 14.05 14.05 0 0 0 19-.32 14.07 14.07 0 0 0 18.35-1.31 14.1 14.1 0 1 0 10.19-23.77z" fill="#b5b5b5"/><path d="M66.18 28.54a14.14 14.14 0 0 0-2.13.18A14.08 14.08 0 0 0 44.3 16.35 14.06 14.06 0 0 0 19.82 27.7a14.11 14.11 0 1 0-1.21 26.24 14.05 14.05 0 0 0 19-.32 14.07 14.07 0 0 0 18.35-1.31 14.1 14.1 0 1 0 10.22-23.77z" fill="#fff"/></g></g></svg>