<svg xmlns="http://www.w3.org/2000/svg" viewBox="0 0 101.17 79.62"><defs><style>.cls-3{fill:#fff}</style></defs><g id="Warstwa_2" data-name="Warstwa 2"><g id="Warstwa_1-2" data-name="Warstwa 1"><path d="M86 36.17A23.19 23.19 0 0 1 89.54.49a23.18 23.18 0 1 0 10.55 42.35A23.08 23.08 0 0 1 86 36.17z" fill="none" stroke="#fff" stroke-miterlimit="10" stroke-width=".75"/><path d="M66.18 24.45a14.14 14.14 0 0 0-2.13.18A14.08 14.08 0 0 0 44.3 12.26a14.06 14.06 0 0 0-24.48 11.35 14.11 14.11 0 1 0-1.21 26.24 14.05 14.05 0 0 0 19-.32 14.07 14.07 0 0 0 18.35-1.31 14.1 14.1 0 1 0 10.22-23.77z" fill="#b5b5b5"/><path class="cls-3" d="M28.67 59.08s-4.65 8.58-.38 8.58c4.71 0 1.18-6.93.38-8.58zM22.09 69.08s-3.65 6.74-.3 6.74c3.69 0 .93-5.44.3-6.74zM45.63 57.35s-3.65 6.74-.3 6.74c3.67 0 .93-5.43.3-6.74zM39.52 69.08s-5.71 10.54-.47 10.54c5.77 0 1.46-8.5.47-10.54zM57.83 58.33s-5.69 10.5-.46 10.5c5.74 0 1.45-8.47.46-10.5zM12.4 60.72S9.53 66 12.16 66c2.9 0 .73-4.26.24-5.28z"/></g></g></svg>