<svg xmlns="http://www.w3.org/2000/svg" viewBox="0 0 59.69 47.11"><defs><style>.cls-1{fill:none;stroke:#fff;stroke-miterlimit:10;stroke-width:.75px}</style></defs><g id="Warstwa_2" data-name="Warstwa 2"><g id="Warstwa_1-2" data-name="Warstwa 1"><path class="cls-1" d="M22.33 36.17A23.19 23.19 0 0 1 25.87.49a23.18 23.18 0 1 0 10.54 42.35 23.08 23.08 0 0 1-14.08-6.67zM46.63 5.75l1.98 4.02 4.43.65-3.21 3.12.76 4.42-3.96-2.08-3.97 2.08.76-4.42-3.21-3.12 4.43-.65 1.99-4.02zM50.08 26.2l3.26 1.1 2.75-2.05-.04 3.43 2.8 1.99-3.28 1.02-1.02 3.28-1.98-2.81-3.44.05 2.06-2.76-1.11-3.25z"/></g></g></svg>