<svg xmlns="http://www.w3.org/2000/svg" viewBox="0 0 101.44 81.84"><defs><style>.cls-2{fill:#fff}</style></defs><g id="Warstwa_2" data-name="Warstwa 2"><g id="Warstwa_1-2" data-name="Warstwa 1"><path d="M87.33 16.94a14.14 14.14 0 0 0-2.13.18A14.08 14.08 0 0 0 65.45 4.75 14.06 14.06 0 0 0 41 16.1a14.11 14.11 0 1 0-1.21 26.24 14.05 14.05 0 0 0 19-.32 14.07 14.07 0 0 0 18.35-1.31 14.1 14.1 0 1 0 10.19-23.77z" fill="#b5b5b5"/><path class="cls-2" d="M66.18 28.54a14.14 14.14 0 0 0-2.13.18A14.08 14.08 0 0 0 44.3 16.35 14.06 14.06 0 0 0 19.82 27.7a14.11 14.11 0 1 0-1.21 26.24 14.05 14.05 0 0 0 19-.32 14.07 14.07 0 0 0 18.35-1.31 14.1 14.1 0 1 0 10.22-23.77zM32.37 61.29s-4.65 8.58-.38 8.58c4.69.01 1.18-6.87.38-8.58zM25.79 71.3s-3.64 6.7-.3 6.7c3.69 0 .94-5.4.3-6.7zM49.33 59.57s-3.65 6.74-.3 6.74c3.69 0 .97-5.43.3-6.74zM43.22 71.3s-5.71 10.54-.47 10.54c5.77 0 1.46-8.5.47-10.54zM61.53 60.54S55.85 71 61.07 71c5.74 0 1.45-8.43.46-10.46zM16.1 62.94s-2.86 5.29-.23 5.29c2.89 0 .73-4.23.23-5.29z"/></g></g></svg>