<svg xmlns="http://www.w3.org/2000/svg" viewBox="0 0 101.44 76.08"><defs><style>.cls-2{fill:#fff}</style></defs><g id="Warstwa_2" data-name="Warstwa 2"><g id="Warstwa_1-2" data-name="Warstwa 1"><path d="M87.33 16.94a14.14 14.14 0 0 0-2.13.18A14.08 14.08 0 0 0 65.45 4.75 14.06 14.06 0 0 0 41 16.1a14.11 14.11 0 1 0-1.21 26.24 14.05 14.05 0 0 0 19-.32 14.07 14.07 0 0 0 18.35-1.31 14.1 14.1 0 1 0 10.19-23.77z" fill="#b5b5b5"/><path class="cls-2" d="M66.18 28.54a14.14 14.14 0 0 0-2.13.18A14.08 14.08 0 0 0 44.3 16.35 14.06 14.06 0 0 0 19.82 27.7a14.11 14.11 0 1 0-1.21 26.24 14.05 14.05 0 0 0 19-.32 14.07 14.07 0 0 0 18.35-1.31 14.1 14.1 0 1 0 10.22-23.77zM18.56 66.84l-1.16.31-.85-.49V65l.85-.49 1.16.31a.29.29 0 0 0 .15-.57l-.59-.16.46-.27a.29.29 0 0 0-.29-.51l-.46.27L18 63a.29.29 0 0 0-.57-.15L17.11 64l-.85.49-1.45-.84v-1l.85-.85a.29.29 0 0 0-.42-.42l-.43.43v-.51a.29.29 0 0 0-.59 0v.53l-.43-.43a.29.29 0 0 0-.42.42l.85.85v1l-1.45.84-.83-.51-.31-1.16a.29.29 0 0 0-.57.15l.16.59-.46-.27a.29.29 0 0 0-.29.51l.46.27-.59.16a.29.29 0 1 0 .15.57l1.16-.31.85.49v1.67l-.85.49-1.16-.31a.29.29 0 0 0-.15.57l.59.16-.46.27a.29.29 0 1 0 .29.51l.46-.27-.16.59a.29.29 0 0 0 .57.15l.31-1.16.85-.49 1.45.84v1l-.85.85a.29.29 0 0 0 .42.42l.43-.43v.53a.29.29 0 1 0 .59 0v-.53l.43.43a.29.29 0 0 0 .42-.42l-.86-.87v-1l1.45-.84.85.49.31 1.16a.29.29 0 1 0 .57-.15l-.16-.59.46.27a.29.29 0 1 0 .29-.51l-.46-.27.59-.16a.29.29 0 1 0-.15-.57zM16 66.32l-.86-.5.86-.5zm-.29-1.5l-.86.5v-1zm-1.45-.5v1l-.86-.5zm-1.15 1l.86.5-.86.5zm.29 1.5l.86-.5v1zm1.45.5v-1l.86.5zM34.66 65.5l-.77.21-.56-.33v-1.12l.56-.33.77.21a.2.2 0 0 0 .1-.38l-.39-.11.31-.18a.2.2 0 0 0-.2-.34l-.31.18.11-.39a.2.2 0 0 0-.38-.1l-.21.77-.56.33-1-.56v-.65l.56-.56a.2.2 0 1 0-.28-.28l-.29.29v-.36a.2.2 0 0 0-.39 0v.36l-.29-.29a.2.2 0 1 0-.28.28l.56.56v.65l-1 .56-.56-.33-.16-.76a.2.2 0 0 0-.38.1l.11.39-.31-.18a.2.2 0 1 0-.2.34l.31.18-.39.11a.2.2 0 1 0 .1.38l.77-.21.56.33v1.11l-.56.33-.77-.21a.2.2 0 0 0-.1.38l.39.11-.31.18a.2.2 0 1 0 .2.34l.31-.18-.11.39a.2.2 0 0 0 .38.1l.21-.77.56-.33 1 .56v.65l-.56.56a.2.2 0 1 0 .28.28l.29-.29v.36a.2.2 0 1 0 .39 0v-.36l.29.29a.2.2 0 1 0 .28-.28l-.56-.56v-.65l1-.56.56.33.21.77a.2.2 0 1 0 .38-.1l-.11-.39.31.18a.2.2 0 1 0 .2-.34l-.36-.17.39-.11a.2.2 0 0 0-.1-.38zm-1.72-.34l-.57-.33.57-.33zm-.2-1l-.57.33v-.66zm-1-.33v.66l-.57-.33zm-.77.67l.57.33-.57.33zm.2 1l.57-.33v.66zm1 .33v-.66l.57.33zM48.37 73.55l-.77.21-.6-.33v-1.11l.6-.32.77.21a.2.2 0 0 0 .1-.38l-.39-.11.31-.18a.2.2 0 0 0-.2-.34l-.31.18L48 71a.2.2 0 0 0-.38-.1l-.21.77-.56.33-1-.56v-.65l.56-.56a.2.2 0 0 0-.28-.28l-.29.29v-.36a.2.2 0 0 0-.39 0v.36l-.29-.29a.2.2 0 1 0-.28.28l.56.56v.65l-1 .56-.44-.35-.21-.77a.2.2 0 0 0-.38.1l.11.39-.31-.18a.2.2 0 0 0-.2.34l.31.18-.39.11a.2.2 0 1 0 .1.38l.77-.21.56.33v1.11l-.56.33-.8-.21a.2.2 0 0 0-.1.38l.39.11-.31.18a.2.2 0 1 0 .2.34l.31-.18-.11.39a.2.2 0 0 0 .38.1l.21-.77.56-.33 1 .56V75l-.56.56a.2.2 0 1 0 .28.28l.29-.29v.36a.2.2 0 1 0 .39 0v-.36l.29.29a.2.2 0 1 0 .28-.28l-.63-.56v-.65l1-.56.56.33.21.77a.2.2 0 1 0 .38-.1l-.11-.39.31.18a.2.2 0 1 0 .2-.34l-.35-.24.39-.11a.2.2 0 1 0-.1-.38zm-1.72-.34l-.57-.33.57-.33zm-.2-1l-.57.33v-.66zm-1-.33v.66l-.57-.33zm-.77.67l.57.33-.57.33zm.2 1l.57-.33v.66zm1 .33v-.66l.57.33zM61.09 66l-1.12.3-.82-.47v-1.64l.82-.47 1.12.3a.28.28 0 0 0 .15-.55l-.57-.15.45-.26a.28.28 0 0 0-.28-.49l-.45.26.15-.57a.28.28 0 0 0-.54-.16l-.3 1.12-.82.47-1.4-.81v-.95l.82-.82a.28.28 0 1 0-.4-.4l-.42.42v-.52a.28.28 0 0 0-.57 0v.52l-.42-.42a.28.28 0 0 0-.4.4l.82.82v.95l-1.4.81-.82-.47-.3-1.12a.28.28 0 0 0-.55.15l.15.57-.45-.26a.28.28 0 1 0-.28.49l.45.26-.57.15a.28.28 0 1 0 .15.55l1.12-.3.82.47v1.62l-.82.47-1.14-.27a.28.28 0 0 0-.15.55l.57.15-.45.26a.28.28 0 1 0 .28.49l.45-.26-.15.57a.28.28 0 0 0 .55.15l.3-1.12.82-.47 1.4.81v.95l-.82.82a.28.28 0 0 0 .4.4l.42-.42v.52a.28.28 0 1 0 .57 0v-.52l.42.42a.28.28 0 0 0 .4-.4l-.82-.82v-.95l1.4-.81.82.47.32 1.11a.28.28 0 1 0 .55-.15l-.15-.57.45.26a.28.28 0 1 0 .28-.49l-.45-.26.57-.15a.28.28 0 1 0-.15-.55zm-2.51-.5l-.83-.5.83-.48zM58.3 64l-.83.48v-1zm-1.4-.48v1l-.84-.52zm-1.12 1l.83.48-.83.48zm.28 1.48l.83-.48v1zm1.4.48v-1l.83.48z"/></g></g></svg>