<svg id="Warstwa_1" data-name="Warstwa 1" xmlns="http://www.w3.org/2000/svg" xmlns:xlink="http://www.w3.org/1999/xlink" viewBox="0 0 1997.14 1098.95"><defs><style>.cls-1{fill:url(#Gradient_bez_nazwy);}.cls-10,.cls-2,.cls-3,.cls-4,.cls-5,.cls-6,.cls-8,.cls-9{fill:#fff;isolation:isolate;}.cls-2{opacity:0.11;}.cls-3{opacity:0.78;}.cls-4{opacity:0.29;}.cls-5{opacity:0.55;}.cls-6{opacity:0.73;}.cls-7{fill:url(#Gradient_bez_nazwy_2);}.cls-8{opacity:0.06;}.cls-9{opacity:0.04;}.cls-10{opacity:0.05;}.cls-11{fill:#28154a;}</style><linearGradient id="Gradient_bez_nazwy" x1="39.49" y1="1089.01" x2="39.49" y2="1087.99" gradientTransform="matrix(1920, 0, 0, -1080, -74823.69, 1176129)" gradientUnits="userSpaceOnUse"><stop offset="0" stop-color="#e05165"/><stop offset="1" stop-color="#7463a0"/></linearGradient><linearGradient id="Gradient_bez_nazwy_2" x1="39.49" y1="1089.01" x2="39.49" y2="1087.99" gradientTransform="matrix(1952.45, 0, 0, -746.97, -76094.03, 813791.67)" gradientUnits="userSpaceOnUse"><stop offset="0" stop-color="#7463a0"/><stop offset="1" stop-color="#23183e"/></linearGradient></defs><title>imagebg</title><g id="bg"><rect id="bg-gradient" class="cls-1" width="1997.14" height="1098.96"/><g id="sun"><ellipse id="Ellipse_2" data-name="Ellipse 2" class="cls-2" cx="997.91" cy="136" rx="98.32" ry="94.04"/><ellipse id="Ellipse_3" data-name="Ellipse 3" class="cls-2" cx="997.91" cy="136" rx="125.64" ry="120.17"/><ellipse id="Ellipse_1" data-name="Ellipse 1" class="cls-3" cx="997.91" cy="136" rx="71.13" ry="68.03"/></g><path id="cloud1" class="cls-4" d="M352.63,130c-12.41,10.24-32.7,16.91-55.63,16.91-28,0-52.07-9.95-62.65-24.19q-3.21.18-6.51.18c-37.79,0-68.42-18.11-68.42-40.46S190.05,42,227.83,42c22.93,0,43.22,6.67,55.63,16.91C295.88,48.67,316.17,42,339.09,42c23.75,0,44.68,7.16,56.95,18,12.37-7.3,29.45-11.81,48.3-11.81,37.78,0,68.41,18.11,68.41,40.46,0,17.55-18.9,32.5-45.32,38.1-11.85,12-33.91,20.15-59.17,20.15C385.33,146.93,365,140.26,352.63,130Z"/><path id="cloud2" class="cls-5" d="M658.07,254.68c-10.95,7.57-28.84,12.5-49.05,12.5-24.69,0-45.91-7.35-55.25-17.88q-2.83.13-5.74.13c-33.32,0-60.33-13.39-60.33-29.91q0-.33,0-.65c-18.12-5.16-30.33-14.85-30.33-26,0-16.52,27-29.91,60.33-29.91,20.22,0,38.11,4.93,49.05,12.5,10.94-7.57,28.84-12.5,49-12.5,20.95,0,39.4,5.29,50.21,13.33,10.91-5.39,26-8.73,42.59-8.73,33.31,0,60.33,13.39,60.33,29.91q0,.33,0,.65c18.13,5.16,30.33,14.85,30.33,26,0,13-16.66,24-40,28.16-10.45,8.91-29.9,14.89-52.18,14.89C686.9,267.17,669,262.24,658.07,254.68Z"/><path id="cloud3" class="cls-6" d="M1672.75,206.91c-9.72,5-25.61,8.18-43.57,8.18-21.93,0-40.78-4.81-49.07-11.7q-2.52.09-5.1.09c-29.59,0-53.58-8.76-53.58-19.57q0-.22,0-.43c-16.1-3.37-26.95-9.71-26.95-17,0-10.81,24-19.57,53.58-19.57,18,0,33.85,3.22,43.57,8.18,9.72-5,25.61-8.18,43.57-8.18,18.61,0,35,3.46,44.6,8.72,9.69-3.53,23.06-5.71,37.83-5.71,29.59,0,53.58,8.76,53.58,19.57q0,.21,0,.43c16.1,3.38,26.94,9.72,26.94,17,0,8.49-14.8,15.72-35.49,18.42-9.28,5.83-26.56,9.74-46.35,9.74C1698.37,215.09,1682.48,211.86,1672.75,206.91Z"/></g><g id="mountains"><path id="Path_1" data-name="Path 1" class="cls-7" d="M0,513,263,334.5,470.51,627,718.34,434.64,951.26,652.4l443.43-235.25,156.17,267,213.51-312L1999,647.26l-1.83,451.7H0Z"/><path id="Path_2" data-name="Path 2" class="cls-8" d="M717.8,434.45,951.45,652.71,842.72,603.09l-78.28,79.2Z"/><path id="Path_3" data-name="Path 3" class="cls-8" d="M1394.58,417.18,951,652.6l264-80.28,62,80.28Z"/><path id="Path_4" data-name="Path 4" class="cls-9" d="M1764.47,372l-55.68,209.75-19.71-41L1550.81,684.23Z"/><path id="Path_5" data-name="Path 5" class="cls-10" d="M263,334.6,470.81,627.13,378.87,560.3l-68.64,32.5Z"/></g><path id="forest" class="cls-11" d="M1997.14,1099H0v-235l47.87-117L82.75,882l3.52.15,74.38-181.85,31.54,122.17,31.33-76.6,39,151.27,7.7.95L326,761.89l34.38,133.2,45.07-110.2,36.09,139.79q21,3.89,42.72,8.23l44-85.2L561.4,949.36q28.49,6.44,58,13.68l32-73.92,24.09,88.2c16.94,4.48,34,9.13,51.42,14l22.44-51.87,17.28,63.31q13.53,4,27.19,8.14l21.39-49.45,16.33,59.81q21.46,5.06,42.88,8.24l16.7-38.61L902.59,1033q9.88,1,19.81,1.58L948,975.48l15.89,58.2,23.29-53.85,15,54.87q8.26-.43,16.6-1l21.71-50.19,12.86,47.11q7.53-.79,15.14-1.69l15.34-53,9.12,49.89q22.9-3.09,46.76-6.93L1155,983.48l8.59,31.47q18.14-3.05,36.91-6.39l20.37-47.08,11.3,41.41q25.94-4.69,53.23-9.66L1314,927.12l15.88,58.16q22.48-4,46-7.93l34.54-79.85,19.41,71.1q22.37-3.48,45.7-6.84l44.67-103.26,25.7,94.14q10-1.05,19.78-1.92L1611.91,815l64.49,131.33c8.86.09,17.57.28,26.19.58l38.68-104.63,36.49,109.8q16.72,1.74,32.61,3.91l47.46-135.84,54.67,155.07q9.68,2.35,18.8,4.78l48.86-139.84,17,48.21V1099Z"/></svg>